# xmcd
#
# Track frame offsets: 
#        150
#        27225
#        45269
#        72564
#        92803
#        95303
#        104816
#        121143
#        133964
#        151870
#        165141
#        187768
#        198330
#        223476
#        254947
#
# Disc length: 3775 seconds
#
# Revision: 1
# Processed by: cddbd v1.5.2PL0 Copyright (c) Steve Scherf et al.
# Submitted via: ExactAudioCopy v1.1
#
DISCID=d50ebd0f
DTITLE=Douglas Adams - Per Anhalter durch die Galaxis 2 - CD05
DYEAR=2005
DGENRE=Hörspiel
TTITLE0=Das Ungewöhnliche an Fenchurch
TTITLE1=Das Ungewöhnliche an Fenchurch
TTITLE2=Das Ungewöhnliche an Fenchurch
TTITLE3=Das Ungewöhnliche an Fenchurch
TTITLE4=Das Ungewöhnliche an Fenchurch
TTITLE5=Das pathologisch Ungewöhnliche an Fenchurch
TTITLE6=Das pathologisch Ungewöhnliche an Fenchurch
TTITLE7=Das pathologisch Ungewöhnliche an Fenchurch
TTITLE8=Das pathologisch Ungewöhnliche an Fenchurch
TTITLE9=Das pathologisch Ungewöhnliche an Fenchurch
TTITLE10=Das pathologisch Ungewöhnliche an Fenchurch
TTITLE11=Das Verschwinden der Delphine
TTITLE12=Das Verschwinden der Delphine
TTITLE13=Das Verschwinden der Delphine
TTITLE14=Das Verschwinden der Delphine
EXTD=
EXTT0=
EXTT1=
EXTT2=
EXTT3=
EXTT4=
EXTT5=
EXTT6=
EXTT7=
EXTT8=
EXTT9=
EXTT10=
EXTT11=
EXTT12=
EXTT13=
EXTT14=
PLAYORDER=
